<!DOCTYPE svg PUBLIC "-//W3C//DTD SVG 1.1//EN" "http://www.w3.org/Graphics/SVG/1.1/DTD/svg11.dtd">
<!-- Uploaded to: SVG Repo, www.svgrepo.com, Transformed by: SVG Repo Mixer Tools -->
<svg version="1.1" id="Layer_1" xmlns="http://www.w3.org/2000/svg" xmlns:xlink="http://www.w3.org/1999/xlink" viewBox="0 0 512 512" xml:space="preserve" width="100px" height="100px" fill="#000000">
<g id="SVGRepo_bgCarrier" stroke-width="0"/>
<g id="SVGRepo_tracerCarrier" stroke-linecap="round" stroke-linejoin="round"/>
<g id="SVGRepo_iconCarrier"> <circle style="fill:#f868d2;" cx="256" cy="256" r="256"/> <g> <rect x="113.424" y="376.08" style="fill:#f0f8ff;" width="285.144" height="8"/> <rect x="157.296" y="400.08" style="fill:#f0f8ff;" width="197.408" height="8"/> </g> <g> <path style="fill:#FFFFFF;" d="M112.096,285.072l33.144-63.832c3.048-5.808,5.52-10.872,7.432-15.208s3.4-8.136,4.488-11.384 s1.832-6.08,2.24-8.488s0.616-4.568,0.616-6.504c0-3.048-0.28-5.608-0.832-7.688c-0.56-2.088-1.384-3.752-2.464-5.016 c-1.088-1.256-2.44-2.152-4.048-2.68s-3.472-0.792-5.584-0.792c-5.16,0-8.888,2.128-11.2,6.376c-2.32,4.248-3.48,10.36-3.48,18.328 v8.52h-17.576c-0.648-3.28-1.2-6.28-1.672-9.008s-0.704-5.704-0.704-8.92c0-3.816,0.656-7.608,1.976-11.392 c1.32-3.776,3.384-7.184,6.192-10.232s6.408-5.512,10.776-7.392s9.592-2.816,15.688-2.816c6.568,0,12.176,0.768,16.832,2.288 c4.664,1.52,8.488,3.752,11.48,6.68s5.168,6.504,6.544,10.728s2.072,9,2.072,14.328c0,3.048-0.28,6.056-0.832,9.008 c-0.56,2.96-1.488,6.136-2.776,9.504s-2.96,7.048-5.008,11.032c-2.056,3.984-4.568,8.552-7.56,13.72l-29.624,56.256h43.864v17.936 h-69.976v-13.352H112.096z"/> <path style="fill:#FFFFFF;" d="M199.568,191.168c0-6.56,0.592-12.232,1.8-17.008s2.784-8.792,4.752-12.048 c1.96-3.248,4.232-5.872,6.816-7.864s5.232-3.528,7.952-4.616c2.728-1.08,5.456-1.8,8.176-2.152s5.224-0.528,7.512-0.528 c2.168,0,4.584,0.168,7.248,0.488c2.672,0.32,5.368,1,8.096,2.024s5.36,2.52,7.904,4.488c2.552,1.96,4.808,4.584,6.776,7.864 c1.96,3.28,3.544,7.328,4.752,12.136c1.192,4.808,1.8,10.544,1.8,17.224v63.48c0,6.56-0.6,12.232-1.8,17.008 c-1.2,4.784-2.808,8.832-4.8,12.176s-4.272,6.056-6.848,8.136c-2.584,2.08-5.216,3.696-7.912,4.832s-5.384,1.912-8.048,2.328 c-2.664,0.408-5.056,0.616-7.168,0.616c-2.344,0-4.888-0.208-7.648-0.616c-2.76-0.416-5.504-1.184-8.264-2.328 c-2.752-1.144-5.408-2.744-7.952-4.792c-2.544-2.056-4.792-4.752-6.728-8.096c-1.936-3.336-3.488-7.416-4.656-12.216 c-1.176-4.808-1.76-10.496-1.76-17.056L199.568,191.168L199.568,191.168z M222.864,264.232c0,6.208,1.128,10.72,3.384,13.536 s5.696,4.216,10.328,4.216c4.512,0,7.88-1.408,10.112-4.216c2.224-2.824,3.344-7.328,3.344-13.536v-81.32 c0-6.56-1.12-11.344-3.344-14.336c-2.224-2.984-5.592-4.48-10.112-4.48c-4.632,0-8.072,1.496-10.328,4.48 c-2.256,2.992-3.384,7.776-3.384,14.336V264.232z"/> <path style="fill:#FFFFFF;" d="M314.52,212.968c-2.544,0-5.112-0.36-7.68-1.072c-2.576-0.72-4.896-2.12-6.984-4.192 c-2.08-2.08-3.768-5.032-5.064-8.856s-1.944-8.84-1.944-15.064v-7.176c0-4.072,0.312-7.592,0.936-10.568 c0.624-2.968,1.488-5.504,2.584-7.616c1.096-2.104,2.36-3.8,3.792-5.096s2.952-2.304,4.56-3.024c1.608-0.712,3.256-1.2,4.928-1.48 c1.68-0.264,3.328-0.4,4.936-0.4c1.512,0,3.112,0.128,4.76,0.368c1.656,0.24,3.28,0.728,4.864,1.448 c1.584,0.712,3.104,1.712,4.528,2.984s2.68,2.96,3.76,5.064c1.072,2.104,1.92,4.656,2.544,7.648c0.624,3,0.936,6.552,0.936,10.672 v7.176c0,6.136-0.688,11.104-2.08,14.928c-1.384,3.832-3.144,6.792-5.264,8.888s-4.456,3.52-6.976,4.256 C319.144,212.6,316.76,212.968,314.52,212.968z M314.656,202.304c2.824,0,4.792-1.216,5.904-3.664 c1.12-2.44,1.68-6.224,1.68-11.368v-13.024c0-5.184-0.56-9.008-1.68-11.472s-3.088-3.696-5.904-3.696 c-2.952,0-5.024,1.232-6.2,3.696c-1.184,2.464-1.784,6.28-1.784,11.472v13.024c0,5.144,0.592,8.928,1.784,11.368 C309.632,201.088,311.704,202.304,314.656,202.304z M355.184,149.832h12.144l-30.8,115.88H324.32L355.184,149.832z M355.32,230.352 c0-6.136,0.68-11.04,2.048-14.736c1.368-3.688,3.112-6.528,5.232-8.512c2.128-1.992,4.464-3.312,7.008-3.96 c2.552-0.648,5.016-0.976,7.384-0.976c1.52,0,3.112,0.128,4.768,0.376c1.656,0.24,3.272,0.728,4.864,1.44 c1.584,0.72,3.096,1.712,4.528,2.984c1.432,1.28,2.68,2.968,3.752,5.072c1.08,2.104,1.928,4.656,2.552,7.648 c0.624,3,0.936,6.552,0.936,10.672v7.176c0,4.12-0.328,7.696-0.968,10.736c-0.656,3.04-1.52,5.632-2.616,7.784 c-1.104,2.152-2.36,3.912-3.8,5.304c-1.432,1.384-2.936,2.488-4.52,3.288c-1.592,0.808-3.208,1.352-4.864,1.64 s-3.216,0.44-4.696,0.44c-1.704,0-3.416-0.152-5.136-0.44c-1.728-0.288-3.384-0.816-4.968-1.576 c-1.584-0.76-3.088-1.832-4.496-3.216c-1.416-1.392-2.632-3.16-3.656-5.304c-1.032-2.144-1.848-4.752-2.456-7.816 s-0.904-6.68-0.904-10.832v-7.192H355.32z M369.08,241.016c0,5.152,0.592,8.936,1.776,11.376s3.256,3.656,6.208,3.656 c2.824,0,4.784-1.216,5.904-3.656s1.672-6.224,1.672-11.376V228c0-5.184-0.552-9.016-1.672-11.48 c-1.128-2.456-3.088-3.688-5.904-3.688c-2.952,0-5.024,1.232-6.208,3.688c-1.176,2.464-1.776,6.288-1.776,11.48V241.016z"/> </g> </g>
</svg>